{
  "accessors": [
    {
      "bufferView": 2,
      "componentType": 5126,
      "count": 2080,
      "max": [
        -1.6912469863891602,
        0.31929200887680054,
        4.869785785675049
      ],
      "min": [
        -3.8351519107818604,
        -0.2022320032119751,
        0.7718759775161743
      ],
      "type": "VEC3"
    },
    {
      "bufferView": 2,
      "byteOffset": 24960,
      "componentType": 5126,
      "count": 2080,
      "max": [
        0.9999122619628906,
        0.981934130191803,
        0.9998506307601929
      ],
      "min": [
        -0.99996018409729,
        -0.9975748062133789,
        -0.9998350739479065
      ],
      "type": "VEC3"
    },
    {
      "bufferView": 3,
      "componentType": 5126,
      "count": 2080,
      "max": [
        0.999846339225769,
        0.7759971618652344,
        0.9999986886978149,
        1.0
      ],
      "min": [
        -0.9997215867042542,
        -0.7760452628135681,
        -0.9999987483024597,
        -1.0
      ],
      "type": "VEC4"
    },
    {
      "bufferView": 1,
      "componentType": 5126,
      "count": 2080,
      "max": [
        0.9780129790306091,
        0.9619330167770386
      ],
      "min": [
        0.004999999888241291,
        0.004999999888241291
      ],
      "type": "VEC2"
    },
    {
      "bufferView": 0,
      "componentType": 5125,
      "count": 10404,
      "type": "SCALAR"
    },
    {
      "bufferView": 2,
      "byteOffset": 49920,
      "componentType": 5126,
      "count": 2435,
      "max": [
        -1.7606290578842163,
        0.3917210102081299,
        4.0218400955200195
      ],
      "min": [
        -2.6259119510650635,
        -0.39172300696372986,
        2.995147943496704
      ],
      "type": "VEC3"
    },
    {
      "bufferView": 2,
      "byteOffset": 79140,
      "componentType": 5126,
      "count": 2435,
      "max": [
        0.9994387626647949,
        1.0,
        0.9997898936271667
      ],
      "min": [
        -0.9997445940971375,
        -1.0,
        -0.9982091784477234
      ],
      "type": "VEC3"
    },
    {
      "bufferView": 3,
      "byteOffset": 33280,
      "componentType": 5126,
      "count": 2435,
      "max": [
        0.9998812675476074,
        1.0,
        0.9910593032836914,
        1.0
      ],
      "min": [
        -0.9998699426651001,
        -0.9999484419822693,
        -0.9999918937683105,
        1.0
      ],
      "type": "VEC4"
    },
    {
      "bufferView": 1,
      "byteOffset": 16640,
      "componentType": 5126,
      "count": 2435,
      "max": [
        0.9900000095367432,
        0.9900000095367432
      ],
      "min": [
        0.009999999776482582,
        0.06607399880886078
      ],
      "type": "VEC2"
    },
    {
      "bufferView": 0,
      "byteOffset": 41616,
      "componentType": 5125,
      "count": 11712,
      "type": "SCALAR"
    },
    {
      "bufferView": 2,
      "byteOffset": 108360,
      "componentType": 5126,
      "count": 16429,
      "max": [
        2.9925830364227295,
        0.7359600067138672,
        3.7678871154785156
      ],
      "min": [
        -2.477405071258545,
        -0.7359579801559448,
        -4.2716169357299805
      ],
      "type": "VEC3"
    },
    {
      "bufferView": 2,
      "byteOffset": 305508,
      "componentType": 5126,
      "count": 16429,
      "max": [
        0.9874992966651917,
        1.0,
        0.9999997615814209
      ],
      "min": [
        -0.9915797710418701,
        -1.0,
        -0.9968346953392029
      ],
      "type": "VEC3"
    },
    {
      "bufferView": 3,
      "byteOffset": 72240,
      "componentType": 5126,
      "count": 16429,
      "max": [
        0.9999991059303284,
        1.0,
        0.9953147172927856,
        1.0
      ],
      "min": [
        -0.9968267679214478,
        -1.0,
        -0.9953087568283081,
        1.0
      ],
      "type": "VEC4"
    },
    {
      "bufferView": 1,
      "byteOffset": 36120,
      "componentType": 5126,
      "count": 16429,
      "max": [
        0.9436339735984802,
        0.9900000095367432
      ],
      "min": [
        0.009999999776482582,
        0.009999999776482582
      ],
      "type": "VEC2"
    },
    {
      "bufferView": 0,
      "byteOffset": 88464,
      "componentType": 5125,
      "count": 83904,
      "type": "SCALAR"
    },
    {
      "bufferView": 2,
      "byteOffset": 502656,
      "componentType": 5126,
      "count": 828,
      "max": [
        3.9811949729919434,
        1.298050045967102,
        -0.6649450063705444
      ],
      "min": [
        -0.7262369990348816,
        -1.298048973083496,
        -4.686952114105225
      ],
      "type": "VEC3"
    },
    {
      "bufferView": 2,
      "byteOffset": 512592,
      "componentType": 5126,
      "count": 828,
      "max": [
        0.998673141002655,
        1.0,
        0.998673141002655
      ],
      "min": [
        -0.998673141002655,
        -1.0,
        -0.998673141002655
      ],
      "type": "VEC3"
    },
    {
      "bufferView": 3,
      "byteOffset": 335104,
      "componentType": 5126,
      "count": 828,
      "max": [
        0.998673141002655,
        1.0,
        0.986309826374054,
        1.0
      ],
      "min": [
        -0.9986730813980103,
        -1.0,
        -0.986309826374054,
        -1.0
      ],
      "type": "VEC4"
    },
    {
      "bufferView": 1,
      "byteOffset": 167552,
      "componentType": 5126,
      "count": 828,
      "max": [
        0.9900000095367432,
        0.9900000095367432
      ],
      "min": [
        0.009999999776482582,
        0.022300999611616135
      ],
      "type": "VEC2"
    },
    {
      "bufferView": 0,
      "byteOffset": 424080,
      "componentType": 5125,
      "count": 1812,
      "type": "SCALAR"
    }
  ],
  "asset": {
    "extras": {
      "author": "Stacy Jnsn (https://sketchfab.com/stacy_666)",
      "license": "CC-BY-4.0 (http://creativecommons.org/licenses/by/4.0/)",
      "source": "https://sketchfab.com/3d-models/mjolnir-1430b815a55d458a8ea1cefced8ab2be",
      "title": "Mjolnir"
    },
    "generator": "Sketchfab-12.68.0",
    "version": "2.0"
  },
  "bufferViews": [
    {
      "buffer": 0,
      "byteLength": 431328,
      "name": "floatBufferViews",
      "target": 34963
    },
    {
      "buffer": 0,
      "byteLength": 174176,
      "byteOffset": 431328,
      "byteStride": 8,
      "name": "floatBufferViews",
      "target": 34962
    },
    {
      "buffer": 0,
      "byteLength": 522528,
      "byteOffset": 605504,
      "byteStride": 12,
      "name": "floatBufferViews",
      "target": 34962
    },
    {
      "buffer": 0,
      "byteLength": 348352,
      "byteOffset": 1128032,
      "byteStride": 16,
      "name": "floatBufferViews",
      "target": 34962
    }
  ],
  "buffers": [
    {
      "byteLength": 1476384,
      "uri": "scene.bin"
    }
  ],
  "extensionsUsed": [
    "KHR_materials_clearcoat"
  ],
  "images": [
    {
      "uri": "textures/None_baseColor.png"
    },
    {
      "uri": "textures/None_metallicRoughness.png"
    },
    {
      "uri": "textures/None_normal.png"
    },
    {
      "uri": "textures/None.001_baseColor.png"
    },
    {
      "uri": "textures/None.001_metallicRoughness.png"
    },
    {
      "uri": "textures/None.001_normal.png"
    },
    {
      "uri": "textures/None.002_baseColor.png"
    },
    {
      "uri": "textures/None.002_metallicRoughness.png"
    },
    {
      "uri": "textures/None.002_normal.png"
    },
    {
      "uri": "textures/None.003_baseColor.png"
    },
    {
      "uri": "textures/None.003_metallicRoughness.png"
    },
    {
      "uri": "textures/None.003_normal.png"
    }
  ],
  "materials": [
    {
      "doubleSided": true,
      "name": "None",
      "normalTexture": {
        "index": 2
      },
      "pbrMetallicRoughness": {
        "baseColorTexture": {
          "index": 0
        },
        "metallicFactor": 0.0,
        "metallicRoughnessTexture": {
          "index": 1
        }
      }
    },
    {
      "doubleSided": true,
      "extensions": {
        "KHR_materials_clearcoat": {
          "clearcoatFactor": 1.0,
          "clearcoatRoughnessFactor": 0.04
        }
      },
      "name": "None.001",
      "normalTexture": {
        "index": 5
      },
      "pbrMetallicRoughness": {
        "baseColorTexture": {
          "index": 3
        },
        "metallicRoughnessTexture": {
          "index": 4
        }
      }
    },
    {
      "doubleSided": true,
      "name": "None.002",
      "normalTexture": {
        "index": 8
      },
      "pbrMetallicRoughness": {
        "baseColorTexture": {
          "index": 6
        },
        "metallicRoughnessTexture": {
          "index": 7
        }
      }
    },
    {
      "doubleSided": true,
      "name": "None.003",
      "normalTexture": {
        "index": 11
      },
      "pbrMetallicRoughness": {
        "baseColorTexture": {
          "index": 9
        },
        "metallicRoughnessTexture": {
          "index": 10
        }
      }
    }
  ],
  "meshes": [
    {
      "name": "Object_0",
      "primitives": [
        {
          "attributes": {
            "NORMAL": 1,
            "POSITION": 0,
            "TANGENT": 2,
            "TEXCOORD_0": 3
          },
          "indices": 4,
          "material": 0,
          "mode": 4
        }
      ]
    },
    {
      "name": "Object_1",
      "primitives": [
        {
          "attributes": {
            "NORMAL": 6,
            "POSITION": 5,
            "TANGENT": 7,
            "TEXCOORD_0": 8
          },
          "indices": 9,
          "material": 1,
          "mode": 4
        }
      ]
    },
    {
      "name": "Object_2",
      "primitives": [
        {
          "attributes": {
            "NORMAL": 11,
            "POSITION": 10,
            "TANGENT": 12,
            "TEXCOORD_0": 13
          },
          "indices": 14,
          "material": 2,
          "mode": 4
        }
      ]
    },
    {
      "name": "Object_3",
      "primitives": [
        {
          "attributes": {
            "NORMAL": 16,
            "POSITION": 15,
            "TANGENT": 17,
            "TEXCOORD_0": 18
          },
          "indices": 19,
          "material": 3,
          "mode": 4
        }
      ]
    }
  ],
  "nodes": [
    {
      "children": [
        1
      ],
      "matrix": [
        1.0,
        0.0,
        0.0,
        0.0,
        0.0,
        2.220446049250313e-16,
        -1.0,
        0.0,
        0.0,
        1.0,
        2.220446049250313e-16,
        0.0,
        0.0,
        0.0,
        0.0,
        1.0
      ],
      "name": "Sketchfab_model"
    },
    {
      "children": [
        2,
        3,
        4,
        5
      ],
      "name": "Mjolnir.obj.cleaner.materialmerger.gles"
    },
    {
      "mesh": 0,
      "name": "Object_2"
    },
    {
      "mesh": 1,
      "name": "Object_3"
    },
    {
      "mesh": 2,
      "name": "Object_4"
    },
    {
      "mesh": 3,
      "name": "Object_5"
    }
  ],
  "samplers": [
    {
      "magFilter": 9729,
      "minFilter": 9987,
      "wrapS": 10497,
      "wrapT": 10497
    }
  ],
  "scene": 0,
  "scenes": [
    {
      "name": "Sketchfab_Scene",
      "nodes": [
        0
      ]
    }
  ],
  "textures": [
    {
      "sampler": 0,
      "source": 0
    },
    {
      "sampler": 0,
      "source": 1
    },
    {
      "sampler": 0,
      "source": 2
    },
    {
      "sampler": 0,
      "source": 3
    },
    {
      "sampler": 0,
      "source": 4
    },
    {
      "sampler": 0,
      "source": 5
    },
    {
      "sampler": 0,
      "source": 6
    },
    {
      "sampler": 0,
      "source": 7
    },
    {
      "sampler": 0,
      "source": 8
    },
    {
      "sampler": 0,
      "source": 9
    },
    {
      "sampler": 0,
      "source": 10
    },
    {
      "sampler": 0,
      "source": 11
    }
  ]
}
